<svg width="141" height="104" viewBox="0 0 141 104" fill="none" xmlns="http://www.w3.org/2000/svg">
<path d="M114.825 56.5013C131.173 65.3721 134.739 80.7685 134.479 87.3579C130.271 86.2059 128.013 89.6846 127.598 91.3312C126.167 88.9729 115.872 79.9844 120.536 86.5596C120.188 86.6992 118.493 87.9959 107.307 94.8765C96.1203 101.757 74.1023 98.7628 64.4917 96.4056C61.5415 95.4913 52.3584 93.9311 39.2281 95.005C26.0978 96.079 9.33627 85.8296 2.59681 80.5707C0.373718 78.9877 -0.526733 70.2975 13.6562 48.2004C31.385 20.579 46.6044 21.4916 52.9184 20.329C59.2323 19.1663 74.3088 27.9665 83.4874 36.955C92.666 45.9435 94.3903 45.4127 114.825 56.5013Z" fill="#008DAC"/>
<path d="M79.4017 65.5272C83.1384 65.8338 84.9253 63.1591 85.3517 61.7833L73.8104 60.6013C74.1172 62.1155 75.665 65.2206 79.4017 65.5272Z" fill="white"/>
<path d="M83.1201 59.1858C83.2411 59.6805 84.6437 61.1285 85.3299 61.7906C83.044 65.0364 80.0184 64.9901 77.6111 64.7926C75.6853 64.6346 74.2196 61.8215 73.7275 60.4348C73.7786 60.5743 74.1156 60.6282 75.8653 58.9945C78.0524 56.9524 79.0555 57.0347 80.4597 57.1499C81.864 57.2651 82.9689 58.5676 83.1201 59.1858Z" fill="white"/>
<path d="M75.4738 60.3852C75.2991 62.5134 76.9874 64.3888 79.2446 64.574C81.5018 64.7592 83.4732 63.1841 83.6478 61.0559C83.8224 58.9277 82.1341 57.0523 79.8769 56.8671C77.6198 56.6819 75.6484 58.257 75.4738 60.3852Z" fill="black"/>
<path d="M82.2939 59.4165C82.3539 58.6855 81.8099 58.0442 81.0788 57.9842C80.3478 57.9242 79.7065 58.4682 79.6466 59.1993C79.5866 59.9303 80.1306 60.5716 80.8616 60.6316C81.5927 60.6915 82.2339 60.1475 82.2939 59.4165Z" fill="white"/>
<path d="M36.6694 16.0101C46.2046 14.5068 46.6879 29.1012 45.7376 36.5864C37.7242 35.9289 34.4355 45.9673 33.7929 51.0687C25.2324 46.8369 24.7503 17.8894 36.6694 16.0101Z" fill="#005D72"/>
<path d="M72.7766 21.6574C74.843 27.6085 73.526 28.3811 72.4915 28.0162C68.6492 25.6841 65.5295 23.5748 61.0493 22.0352C63.6525 16.2544 69.2524 4.79656 71.1003 5.21709C72.9482 5.63762 72.3097 8.22953 71.7595 9.47292C71.2376 11.0548 70.7103 15.7062 72.7766 21.6574Z" fill="#005D72"/>
</svg>